<?xml version="1.0" encoding="UTF-8" standalone="no"?>
<svg
   xmlns:dc="http://purl.org/dc/elements/1.1/"
   xmlns:cc="http://creativecommons.org/ns#"
   xmlns:rdf="http://www.w3.org/1999/02/22-rdf-syntax-ns#"
   xmlns:svg="http://www.w3.org/2000/svg"
   xmlns="http://www.w3.org/2000/svg"
   xmlns:sodipodi="http://sodipodi.sourceforge.net/DTD/sodipodi-0.dtd"
   xmlns:inkscape="http://www.inkscape.org/namespaces/inkscape"
   version="1.1"
   width="24.5in"
   height="7.5in"
   viewBox=" 0 0 2205 675"
   id="svg5745"
   sodipodi:docname="kinect_case_v2.svg"
   inkscape:version="0.92.1 r15371">
  <metadata
     id="metadata5751">
    <rdf:RDF>
      <cc:Work
         rdf:about="">
        <dc:format>image/svg+xml</dc:format>
        <dc:type
           rdf:resource="http://purl.org/dc/dcmitype/StillImage" />
        <dc:title></dc:title>
      </cc:Work>
    </rdf:RDF>
  </metadata>
  <defs
     id="defs5749" />
  <sodipodi:namedview
     pagecolor="#ffffff"
     bordercolor="#666666"
     borderopacity="1"
     objecttolerance="10"
     gridtolerance="10"
     guidetolerance="10"
     inkscape:pageopacity="0"
     inkscape:pageshadow="2"
     inkscape:window-width="1920"
     inkscape:window-height="1017"
     id="namedview5747"
     showgrid="false"
     inkscape:document-units="in"
     inkscape:zoom="0.4829932"
     inkscape:cx="1162.2336"
     inkscape:cy="322.69918"
     inkscape:window-x="1672"
     inkscape:window-y="-8"
     inkscape:window-maximized="1"
     inkscape:current-layer="svg5745" />
  <!-- Front-->
  <g
     transform="translate(22.5, 22.5) "
     id="g5723">
    <polygon
       style="stroke:#0000FF; fill:none; stroke-width:0.9"
       points="0, 0 56.25, 0 56.25, 21.24 112.5, 21.24 112.5, 0 157.5, 0 157.5, 21.24 202.5, 21.24 202.5, 0 247.5, 0 247.5, 21.24 292.5, 21.24 292.5, 0 337.5, 0 337.5, 21.24 382.5, 21.24 382.5, 0 427.5, 0 427.5, 21.24 472.5, 21.24 472.5, 0 517.5, 0 517.5, 21.24 562.5, 21.24 562.5, 0 607.5, 0 607.5, 21.24 652.5, 21.24 652.5, 0 697.5, 0 697.5, 21.24 742.5, 21.24 742.5, 0 787.5, 0 787.5, 21.24 843.75, 21.24 843.75, 0 900, 0 900, 56.25 878.76, 56.25 878.76, 112.5 900, 112.5 900, 157.5 878.76, 157.5 878.76, 213.75 900, 213.75 900, 270 843.75, 270 843.75, 248.76 787.5, 248.76 787.5, 270 742.5, 270 742.5, 248.76 697.5, 248.76 697.5, 270 652.5, 270 652.5, 248.76 607.5, 248.76 607.5, 270 562.5, 270 562.5, 248.76 517.5, 248.76 517.5, 270 472.5, 270 472.5, 248.76 427.5, 248.76 427.5, 270 382.5, 270 382.5, 248.76 337.5, 248.76 337.5, 270 292.5, 270 292.5, 248.76 247.5, 248.76 247.5, 270 202.5, 270 202.5, 248.76 157.5, 248.76 157.5, 270 112.5, 270 112.5, 248.76 56.25, 248.76 56.25, 270 0, 270 0, 213.75 21.24, 213.75 21.24, 157.5 0, 157.5 0, 112.5 21.24, 112.5 21.24, 56.25 0, 56.25 "
       id="polygon5721" />
  </g>
  <!-- Back-->
  <g
     transform="translate(922.5, 22.5) "
     id="g5727">
    <polygon
       style="stroke:#0000FF; fill:none; stroke-width:0.9"
       points="0, 0 56.25, 0 56.25, 21.24 112.5, 21.24 112.5, 0 157.5, 0 157.5, 21.24 202.5, 21.24 202.5, 0 247.5, 0 247.5, 21.24 292.5, 21.24 292.5, 0 337.5, 0 337.5, 21.24 382.5, 21.24 382.5, 0 427.5, 0 427.5, 21.24 472.5, 21.24 472.5, 0 517.5, 0 517.5, 21.24 562.5, 21.24 562.5, 0 607.5, 0 607.5, 21.24 652.5, 21.24 652.5, 0 697.5, 0 697.5, 21.24 742.5, 21.24 742.5, 0 787.5, 0 787.5, 21.24 843.75, 21.24 843.75, 0 900, 0 900, 56.25 878.76, 56.25 878.76, 112.5 900, 112.5 900, 157.5 878.76, 157.5 878.76, 213.75 900, 213.75 900, 270 843.75, 270 843.75, 248.76 787.5, 248.76 787.5, 270 742.5, 270 742.5, 248.76 697.5, 248.76 697.5, 270 652.5, 270 652.5, 248.76 607.5, 248.76 607.5, 270 562.5, 270 562.5, 248.76 517.5, 248.76 517.5, 270 472.5, 270 472.5, 248.76 427.5, 248.76 427.5, 270 382.5, 270 382.5, 248.76 337.5, 248.76 337.5, 270 292.5, 270 292.5, 248.76 247.5, 248.76 247.5, 270 202.5, 270 202.5, 248.76 157.5, 248.76 157.5, 270 112.5, 270 112.5, 248.76 56.25, 248.76 56.25, 270 0, 270 0, 213.75 21.24, 213.75 21.24, 157.5 0, 157.5 0, 112.5 21.24, 112.5 21.24, 56.25 0, 56.25 "
       id="polygon5725" />
  </g>
  <!-- Left-->
  <g
     transform="translate(1822.5, 22.5) "
     id="g5731">
    <polygon
       style="stroke:#0000FF; fill:none; stroke-width:0.9"
       points="21.24, 0 56.25, 0 56.25, 21.24 112.5, 21.24 112.5, 0 157.5, 0 157.5, 21.24 202.5, 21.24 202.5, 0 247.5, 0 247.5, 21.24 303.75, 21.24 303.75, 0 338.76, 0 338.76, 56.25 360, 56.25 360, 112.5 338.76, 112.5 338.76, 157.5 360, 157.5 360, 213.75 338.76, 213.75 338.76, 270 303.75, 270 303.75, 248.76 247.5, 248.76 247.5, 270 202.5, 270 202.5, 248.76 157.5, 248.76 157.5, 270 112.5, 270 112.5, 248.76 56.25, 248.76 56.25, 270 21.24, 270 21.24, 213.75 0, 213.75 0, 157.5 21.24, 157.5 21.24, 112.5 0, 112.5 0, 56.25 21.24, 56.25 "
       id="polygon5729" />
  </g>
  <!-- Right-->
  <g
     transform="translate(1822.5, 292.5) "
     id="g5735">
    <polygon
       style="stroke:#0000FF; fill:none; stroke-width:0.9"
       points="21.24, 0 56.25, 0 56.25, 21.24 112.5, 21.24 112.5, 0 157.5, 0 157.5, 21.24 202.5, 21.24 202.5, 0 247.5, 0 247.5, 21.24 303.75, 21.24 303.75, 0 338.76, 0 338.76, 56.25 360, 56.25 360, 112.5 338.76, 112.5 338.76, 157.5 360, 157.5 360, 213.75 338.76, 213.75 338.76, 270 303.75, 270 303.75, 248.76 247.5, 248.76 247.5, 270 202.5, 270 202.5, 248.76 157.5, 248.76 157.5, 270 112.5, 270 112.5, 248.76 56.25, 248.76 56.25, 270 21.24, 270 21.24, 213.75 0, 213.75 0, 157.5 21.24, 157.5 21.24, 112.5 0, 112.5 0, 56.25 21.24, 56.25 "
       id="polygon5733" />
  </g>
  <!-- Top-->
  <g
     transform="translate(22.5, 292.5) "
     id="g5739">
    <polygon
       style="stroke:#0000FF; fill:none; stroke-width:0.9"
       points="21.24, 21.24 56.25, 21.24 56.25, 0 112.5, 0 112.5, 21.24 157.5, 21.24 157.5, 0 202.5, 0 202.5, 21.24 247.5, 21.24 247.5, 0 292.5, 0 292.5, 21.24 337.5, 21.24 337.5, 0 382.5, 0 382.5, 21.24 427.5, 21.24 427.5, 0 472.5, 0 472.5, 21.24 517.5, 21.24 517.5, 0 562.5, 0 562.5, 21.24 607.5, 21.24 607.5, 0 652.5, 0 652.5, 21.24 697.5, 21.24 697.5, 0 742.5, 0 742.5, 21.24 787.5, 21.24 787.5, 0 843.75, 0 843.75, 21.24 878.76, 21.24 878.76, 56.25 900, 56.25 900, 112.5 878.76, 112.5 878.76, 157.5 900, 157.5 900, 202.5 878.76, 202.5 878.76, 247.5 900, 247.5 900, 303.75 878.76, 303.75 878.76, 338.76 843.75, 338.76 843.75, 360 787.5, 360 787.5, 338.76 742.5, 338.76 742.5, 360 697.5, 360 697.5, 338.76 652.5, 338.76 652.5, 360 607.5, 360 607.5, 338.76 562.5, 338.76 562.5, 360 517.5, 360 517.5, 338.76 472.5, 338.76 472.5, 360 427.5, 360 427.5, 338.76 382.5, 338.76 382.5, 360 337.5, 360 337.5, 338.76 292.5, 338.76 292.5, 360 247.5, 360 247.5, 338.76 202.5, 338.76 202.5, 360 157.5, 360 157.5, 338.76 112.5, 338.76 112.5, 360 56.25, 360 56.25, 338.76 21.24, 338.76 21.24, 303.75 0, 303.75 0, 247.5 21.24, 247.5 21.24, 202.5 0, 202.5 0, 157.5 21.24, 157.5 21.24, 112.5 0, 112.5 0, 56.25 21.24, 56.25 "
       id="polygon5737" />
  </g>
  <!-- Bottom-->
  <g
     transform="translate(922.5, 292.5) "
     id="g5743">
    <polygon
       style="stroke:#0000FF; fill:none; stroke-width:0.9"
       points="21.24, 21.24 56.25, 21.24 56.25, 0 112.5, 0 112.5, 21.24 157.5, 21.24 157.5, 0 202.5, 0 202.5, 21.24 247.5, 21.24 247.5, 0 292.5, 0 292.5, 21.24 337.5, 21.24 337.5, 0 382.5, 0 382.5, 21.24 427.5, 21.24 427.5, 0 472.5, 0 472.5, 21.24 517.5, 21.24 517.5, 0 562.5, 0 562.5, 21.24 607.5, 21.24 607.5, 0 652.5, 0 652.5, 21.24 697.5, 21.24 697.5, 0 742.5, 0 742.5, 21.24 787.5, 21.24 787.5, 0 843.75, 0 843.75, 21.24 878.76, 21.24 878.76, 56.25 900, 56.25 900, 112.5 878.76, 112.5 878.76, 157.5 900, 157.5 900, 202.5 878.76, 202.5 878.76, 247.5 900, 247.5 900, 303.75 878.76, 303.75 878.76, 338.76 843.75, 338.76 843.75, 360 787.5, 360 787.5, 338.76 742.5, 338.76 742.5, 360 697.5, 360 697.5, 338.76 652.5, 338.76 652.5, 360 607.5, 360 607.5, 338.76 562.5, 338.76 562.5, 360 517.5, 360 517.5, 338.76 472.5, 338.76 472.5, 360 427.5, 360 427.5, 338.76 382.5, 338.76 382.5, 360 337.5, 360 337.5, 338.76 292.5, 338.76 292.5, 360 247.5, 360 247.5, 338.76 202.5, 338.76 202.5, 360 157.5, 360 157.5, 338.76 112.5, 338.76 112.5, 360 56.25, 360 56.25, 338.76 21.24, 338.76 21.24, 303.75 0, 303.75 0, 247.5 21.24, 247.5 21.24, 202.5 0, 202.5 0, 157.5 21.24, 157.5 21.24, 112.5 0, 112.5 0, 56.25 21.24, 56.25 "
       id="polygon5741" />
  </g>
  <rect
     id="rect5753"
     width="830.22656"
     height="46.25885"
     x="58.160076"
     y="213.49377"
     style="stroke-width:0.9375;fill:none;stroke:#0000ff;stroke-opacity:1" />
  <rect
     style="fill:none;stroke:#0000ff;stroke-width:0.9375;stroke-opacity:1"
     id="rect6560"
     width="269.35498"
     height="133.87503"
     x="1214.6707"
     y="91.285065" />
</svg>
