<?xml version="1.0" standalone="no"?>
<!DOCTYPE svg PUBLIC "-//W3C//DTD SVG 1.1//EN" "http://www.w3.org/Graphics/SVG/1.1/DTD/svg11.dtd">
<svg width="131.353555079128mm" height="229.55000000000007mm"
 viewBox="0 0 131.353555079128 229.55000000000007"
 xmlns="http://www.w3.org/2000/svg" version="1.1"
 xmlns:xlink="http://www.w3.org/1999/xlink">
<desc>Output from Flights of Ideas SVG Sketchup Plugin</desc>

  <g id="face0" fill="none" stroke="#0000FF" stroke-width="1" stroke-miterlimit="4" stroke-dasharray="none" stroke-linejoin="round" stroke-linecap="round">
    <line x1="10.0" y1="219.55000000000007" x2="121.353555079128" y2="219.55000000000007"/>
    <line x1="121.353555079128" y1="219.55000000000007" x2="121.353555079128" y2="10.0"/>
    <line x1="121.353555079128" y1="10.0" x2="10.0" y2="10.0"/>
    <line x1="10.0" y1="10.0" x2="10.0" y2="219.55000000000007"/>
    <line x1="95.95355507912797" y1="165.575" x2="35.400000000000006" y2="165.575"/>
    <line x1="35.400000000000006" y1="165.575" x2="35.400000000000006" y2="140.175"/>
    <line x1="35.400000000000006" y1="140.175" x2="95.95355507912797" y2="140.175"/>
    <line x1="95.95355507912797" y1="140.175" x2="95.95355507912797" y2="165.575"/>
    <line x1="95.95355507912797" y1="102.07499999999999" x2="95.95355507912797" y2="127.475"/>
    <line x1="95.95355507912797" y1="127.475" x2="35.400000000000006" y2="127.475"/>
    <line x1="35.400000000000006" y1="127.475" x2="35.400000000000006" y2="102.075"/>
    <line x1="35.400000000000006" y1="102.075" x2="95.95355507912797" y2="102.07499999999999"/>
    <line x1="95.95355507912797" y1="25.875000000000057" x2="95.95355507912797" y2="51.27499999999998"/>
    <line x1="95.95355507912797" y1="51.27499999999998" x2="35.400000000000006" y2="51.275000000000034"/>
    <line x1="35.400000000000006" y1="51.275000000000034" x2="35.400000000000006" y2="25.875"/>
    <line x1="35.400000000000006" y1="25.875" x2="95.95355507912797" y2="25.875000000000057"/>
    <line x1="95.95355507912797" y1="89.37500000000003" x2="35.400000000000006" y2="89.375"/>
    <line x1="35.400000000000006" y1="89.375" x2="35.400000000000006" y2="63.974999999999994"/>
    <line x1="35.400000000000006" y1="63.974999999999994" x2="95.95355507912797" y2="63.97500000000002"/>
    <line x1="95.95355507912797" y1="63.97500000000002" x2="95.95355507912797" y2="89.37500000000003"/>
    <line x1="95.95355507912797" y1="178.27500000000003" x2="95.95355507912797" y2="203.67499999999995"/>
    <line x1="95.95355507912797" y1="203.67499999999995" x2="35.400000000000006" y2="203.675"/>
    <line x1="35.400000000000006" y1="203.675" x2="35.400000000000006" y2="178.275"/>
    <line x1="35.400000000000006" y1="178.275" x2="95.95355507912797" y2="178.27500000000003"/>
  </g>
</svg>
